<svg width="751" height="150" viewBox="0 0 751 150" fill="none" xmlns="http://www.w3.org/2000/svg">
<path d="M5.4329 57.5615V2.84129H19.4943C23.3856 2.84129 27.0004 3.53773 30.3389 4.93061C33.6774 6.32349 36.5958 8.2691 39.0941 10.7674C41.6146 13.2437 43.5712 16.151 44.9641 19.4895C46.3791 22.8059 47.0866 26.3876 47.0866 30.2346C47.0866 34.0816 46.3902 37.6633 44.9973 40.9796C43.6044 44.296 41.6477 47.2034 39.1273 49.7017C36.629 52.1779 33.6995 54.1125 30.3389 55.5054C27.0004 56.8761 23.3856 57.5615 19.4943 57.5615H5.4329ZM14.1218 49.768H18.5658C21.3073 49.768 23.8388 49.2816 26.1603 48.3088C28.5038 47.336 30.5379 45.9653 32.2624 44.1965C34.009 42.4278 35.3577 40.3606 36.3084 37.9949C37.2812 35.6071 37.7676 33.0093 37.7676 30.2014C37.7676 27.4156 37.2812 24.8289 36.3084 22.4411C35.3577 20.0533 34.009 17.9861 32.2624 16.2395C30.5379 14.4707 28.5038 13.1 26.1603 12.1271C23.8388 11.1322 21.3073 10.6348 18.5658 10.6348H14.1218V49.768ZM57.5695 57.5615V23.6018H65.8272V57.5615H57.5695ZM61.7149 16.6374C60.8085 16.6374 59.9683 16.4163 59.1945 15.9741C58.4428 15.5099 57.8348 14.9019 57.3705 14.1501C56.9283 13.3763 56.7072 12.5251 56.7072 11.5965C56.7072 10.6901 56.9283 9.86096 57.3705 9.10924C57.8348 8.35753 58.4428 7.76058 59.1945 7.3184C59.9683 6.85411 60.8085 6.62196 61.7149 6.62196C62.6435 6.62196 63.4726 6.85411 64.2022 7.3184C64.9539 7.76058 65.5509 8.35753 65.9931 9.10924C66.4574 9.86096 66.6895 10.6901 66.6895 11.5965C66.6895 12.5251 66.4574 13.3763 65.9931 14.1501C65.5509 14.9019 64.9539 15.5099 64.2022 15.9741C63.4726 16.4163 62.6435 16.6374 61.7149 16.6374ZM88.006 58.6228C85.154 58.6228 82.6114 58.0921 80.3784 57.0309C78.1674 55.9476 76.3656 54.3999 74.9727 52.388L78.6207 47.0154C79.9251 48.74 81.3733 50.0776 82.9651 51.0283C84.5791 51.979 86.2484 52.4543 87.9729 52.4543C89.0341 52.4543 89.9738 52.2664 90.7918 51.8905C91.6098 51.4926 92.2621 50.9288 92.7485 50.1992C93.2349 49.4475 93.4781 48.5631 93.4781 47.5461C93.4781 46.4848 93.2017 45.6557 92.649 45.0588C92.0962 44.4618 91.2671 43.9202 90.1617 43.4338C89.0562 42.9474 87.6633 42.3725 85.983 41.7092C84.5681 41.1123 83.2194 40.449 81.9371 39.7194C80.6547 38.9898 79.5935 38.0723 78.7533 36.9668C77.9353 35.8392 77.5263 34.4132 77.5263 32.6887C77.5263 30.721 78.068 28.9743 79.1513 27.4488C80.2568 25.9233 81.7602 24.7294 83.6616 23.8671C85.5851 23.0049 87.7739 22.5737 90.228 22.5737C91.9967 22.5737 93.7765 22.8943 95.5674 23.5355C97.3582 24.1545 99.1491 25.061 100.94 26.2549L97.9552 31.4616C95.3684 29.317 92.8148 28.2447 90.2943 28.2447C88.813 28.2447 87.6191 28.5985 86.7126 29.306C85.8283 30.0135 85.3861 30.92 85.3861 32.0254C85.3861 32.9319 85.773 33.7057 86.5468 34.3469C87.3207 34.988 88.2824 35.5518 89.4321 36.0382C90.5818 36.5246 91.7314 36.9889 92.8811 37.4311C94.6941 38.0944 96.2859 38.8019 97.6567 39.5536C99.0275 40.3053 100.1 41.2781 100.874 42.472C101.647 43.6659 102.034 45.2578 102.034 47.2476C102.034 49.6354 101.459 51.6805 100.31 53.3829C99.1822 55.0853 97.5683 56.3897 95.4679 57.2962C93.3675 58.1806 90.8802 58.6228 88.006 58.6228ZM128.059 58.6228C125.494 58.6228 123.073 58.1695 120.796 57.263C118.541 56.3345 116.551 55.0521 114.826 53.4161C113.102 51.78 111.742 49.8675 110.747 47.6787C109.774 45.4899 109.288 43.1242 109.288 40.5817C109.288 38.1275 109.752 35.8171 110.681 33.6504C111.631 31.4616 112.947 29.5381 114.627 27.8799C116.33 26.2218 118.319 24.9173 120.597 23.9666C122.896 23.0159 125.372 22.5406 128.025 22.5406C130.236 22.5406 132.348 22.8612 134.36 23.5023C136.394 24.1435 138.074 24.9836 139.401 26.0228L136.449 31.5943C134.503 30.113 132.105 29.3723 129.252 29.3723C126.909 29.3723 124.886 29.8919 123.183 30.931C121.481 31.948 120.177 33.3188 119.27 35.0433C118.364 36.7457 117.91 38.5918 117.91 40.5817C117.91 42.682 118.386 44.5834 119.336 46.2858C120.287 47.9661 121.625 49.3037 123.349 50.2987C125.074 51.2936 127.064 51.791 129.319 51.791C130.712 51.791 132.016 51.592 133.232 51.1941C134.47 50.7961 135.531 50.2544 136.416 49.5691L139.401 55.1406C138.052 56.1576 136.383 56.9867 134.393 57.6279C132.403 58.2911 130.292 58.6228 128.059 58.6228ZM165.096 58.6228C161.426 58.6228 158.109 57.86 155.147 56.3345C152.206 54.8089 149.874 52.6864 148.149 49.967C146.425 47.2476 145.562 44.1191 145.562 40.5817C145.562 37.0221 146.425 33.8936 148.149 31.1963C149.874 28.4769 152.206 26.3544 155.147 24.8289C158.087 23.3033 161.404 22.5406 165.096 22.5406C168.766 22.5406 172.071 23.3033 175.012 24.8289C177.974 26.3544 180.307 28.4769 182.009 31.1963C183.734 33.8936 184.596 37.0221 184.596 40.5817C184.596 44.1191 183.734 47.2476 182.009 49.967C180.307 52.6864 177.974 54.8089 175.012 56.3345C172.071 57.86 168.766 58.6228 165.096 58.6228ZM165.096 51.5257C167.174 51.5257 169.031 51.0614 170.667 50.1328C172.325 49.1821 173.63 47.8888 174.581 46.2527C175.531 44.5945 176.007 42.7042 176.007 40.5817C176.007 38.4371 175.531 36.5467 174.581 34.9107C173.63 33.2525 172.325 31.9591 170.667 31.0305C169.031 30.1019 167.174 29.6376 165.096 29.6376C163.04 29.6376 161.182 30.1019 159.524 31.0305C157.866 31.9591 156.562 33.2525 155.611 34.9107C154.66 36.5467 154.185 38.4371 154.185 40.5817C154.185 42.7042 154.66 44.5945 155.611 46.2527C156.562 47.8888 157.866 49.1821 159.524 50.1328C161.182 51.0614 163.04 51.5257 165.096 51.5257ZM205.715 57.5615L188.337 23.6018H198.087L208.468 46.4517L218.848 23.6018H228.598L211.22 57.5615H205.715ZM251.459 58.6228C247.833 58.6228 244.583 57.8379 241.709 56.2681C238.857 54.6984 236.59 52.5538 234.91 49.8344C233.252 47.1149 232.423 44.0528 232.423 40.648C232.423 38.1275 232.898 35.7729 233.849 33.5841C234.8 31.3953 236.115 29.4718 237.795 27.8136C239.476 26.1554 241.432 24.862 243.665 23.9335C245.898 23.0049 248.308 22.5406 250.895 22.5406C254.433 22.5406 257.528 23.2702 260.181 24.7294C262.856 26.1886 264.934 28.2226 266.416 30.8315C267.919 33.4404 268.671 36.4804 268.671 39.9516C268.671 40.239 268.66 40.4822 268.638 40.6812C268.616 40.858 268.571 41.1676 268.505 41.6097H240.846C240.846 43.6659 241.311 45.4789 242.239 47.0486C243.168 48.5962 244.461 49.8123 246.12 50.6966C247.8 51.5589 249.723 51.99 251.89 51.99C253.946 51.99 255.77 51.581 257.362 50.7629C258.976 49.9228 260.435 48.6515 261.74 46.9491L267.742 50.0333C266.128 52.7307 263.884 54.8421 261.01 56.3676C258.158 57.8711 254.974 58.6228 251.459 58.6228ZM241.211 36.4362H260.479C260.192 34.8886 259.606 33.5509 258.722 32.4234C257.837 31.2958 256.721 30.4225 255.372 29.8034C254.024 29.1623 252.52 28.8417 250.862 28.8417C249.115 28.8417 247.557 29.1512 246.186 29.7703C244.815 30.3893 243.699 31.2626 242.836 32.3902C241.974 33.5178 241.432 34.8664 241.211 36.4362ZM278.543 57.5615V23.6018H286.801V28.5432C287.995 26.5976 289.487 25.1163 291.278 24.0993C293.069 23.0601 295.037 22.5406 297.181 22.5406C298.309 22.5406 299.459 22.6953 300.63 23.0049C301.824 23.2923 302.841 23.6792 303.681 24.1656L300.266 31.1632C299.536 30.721 298.685 30.3672 297.712 30.1019C296.761 29.8366 295.877 29.704 295.059 29.704C293.644 29.704 292.306 30.0688 291.046 30.7984C289.786 31.528 288.758 32.4676 287.962 33.6173C287.188 34.767 286.801 36.0051 286.801 37.3316V57.5615H278.543ZM310.462 67.776L308.141 65.8856C308.649 65.3771 309.158 64.6807 309.667 63.7963C310.197 62.9341 310.661 62.0055 311.059 61.0106C311.457 60.0156 311.701 59.076 311.789 58.1916C310.507 57.9042 309.479 57.2962 308.705 56.3676C307.953 55.439 307.577 54.3336 307.577 53.0512C307.577 51.4594 308.086 50.166 309.103 49.1711C310.142 48.1762 311.479 47.6787 313.116 47.6787C314.796 47.6787 316.133 48.2093 317.128 49.2706C318.123 50.3318 318.621 51.8021 318.621 53.6814C318.621 55.9807 317.88 58.4017 316.399 60.9442C314.94 63.4868 312.961 65.764 310.462 67.776ZM364.998 58.6228C362.434 58.6228 360.013 58.1695 357.735 57.263C355.48 56.3345 353.49 55.0521 351.766 53.4161C350.041 51.78 348.682 49.8675 347.687 47.6787C346.714 45.4899 346.227 43.1242 346.227 40.5817C346.227 38.1275 346.692 35.8171 347.62 33.6504C348.571 31.4616 349.887 29.5381 351.567 27.8799C353.269 26.2218 355.259 24.9173 357.536 23.9666C359.836 23.0159 362.312 22.5406 364.965 22.5406C367.176 22.5406 369.287 22.8612 371.299 23.5023C373.333 24.1435 375.014 24.9836 376.34 26.0228L373.389 31.5943C371.443 30.113 369.044 29.3723 366.192 29.3723C363.849 29.3723 361.826 29.8919 360.123 30.931C358.421 31.948 357.116 33.3188 356.21 35.0433C355.303 36.7457 354.85 38.5918 354.85 40.5817C354.85 42.682 355.325 44.5834 356.276 46.2858C357.227 47.9661 358.564 49.3037 360.289 50.2987C362.013 51.2936 364.003 51.791 366.258 51.791C367.651 51.791 368.956 51.592 370.172 51.1941C371.41 50.7961 372.471 50.2544 373.355 49.5691L376.34 55.1406C374.992 56.1576 373.322 56.9867 371.332 57.6279C369.343 58.2911 367.231 58.6228 364.998 58.6228ZM402.035 58.6228C398.365 58.6228 395.049 57.86 392.086 56.3345C389.146 54.8089 386.813 52.6864 385.089 49.967C383.364 47.2476 382.502 44.1191 382.502 40.5817C382.502 37.0221 383.364 33.8936 385.089 31.1963C386.813 28.4769 389.146 26.3544 392.086 24.8289C395.027 23.3033 398.343 22.5406 402.035 22.5406C405.706 22.5406 409.011 23.3033 411.951 24.8289C414.914 26.3544 417.247 28.4769 418.949 31.1963C420.673 33.8936 421.536 37.0221 421.536 40.5817C421.536 44.1191 420.673 47.2476 418.949 49.967C417.247 52.6864 414.914 54.8089 411.951 56.3345C409.011 57.86 405.706 58.6228 402.035 58.6228ZM402.035 51.5257C404.114 51.5257 405.971 51.0614 407.607 50.1328C409.265 49.1821 410.57 47.8888 411.52 46.2527C412.471 44.5945 412.946 42.7042 412.946 40.5817C412.946 38.4371 412.471 36.5467 411.52 34.9107C410.57 33.2525 409.265 31.9591 407.607 31.0305C405.971 30.1019 404.114 29.6376 402.035 29.6376C399.979 29.6376 398.122 30.1019 396.464 31.0305C394.806 31.9591 393.501 33.2525 392.551 34.9107C391.6 36.5467 391.125 38.4371 391.125 40.5817C391.125 42.7042 391.6 44.5945 392.551 46.2527C393.501 47.8888 394.806 49.1821 396.464 50.1328C398.122 51.0614 399.979 51.5257 402.035 51.5257ZM431.408 57.5615V0.519827H439.665V57.5615H431.408ZM452.459 57.5615V0.519827H460.717V57.5615H452.459ZM489.694 58.6228C486.068 58.6228 482.818 57.8379 479.944 56.2681C477.092 54.6984 474.826 52.5538 473.145 49.8344C471.487 47.1149 470.658 44.0528 470.658 40.648C470.658 38.1275 471.133 35.7729 472.084 33.5841C473.035 31.3953 474.35 29.4718 476.031 27.8136C477.711 26.1554 479.667 24.862 481.901 23.9335C484.134 23.0049 486.543 22.5406 489.13 22.5406C492.668 22.5406 495.763 23.2702 498.416 24.7294C501.091 26.1886 503.17 28.2226 504.651 30.8315C506.154 33.4404 506.906 36.4804 506.906 39.9516C506.906 40.239 506.895 40.4822 506.873 40.6812C506.851 40.858 506.807 41.1676 506.74 41.6097H479.082C479.082 43.6659 479.546 45.4789 480.474 47.0486C481.403 48.5962 482.696 49.8123 484.355 50.6966C486.035 51.5589 487.958 51.99 490.125 51.99C492.181 51.99 494.005 51.581 495.597 50.7629C497.211 49.9228 498.67 48.6515 499.975 46.9491L505.977 50.0333C504.363 52.7307 502.119 54.8421 499.245 56.3676C496.393 57.8711 493.209 58.6228 489.694 58.6228ZM479.446 36.4362H498.715C498.427 34.8886 497.841 33.5509 496.957 32.4234C496.072 31.2958 494.956 30.4225 493.607 29.8034C492.259 29.1623 490.755 28.8417 489.097 28.8417C487.35 28.8417 485.792 29.1512 484.421 29.7703C483.05 30.3893 481.934 31.2626 481.071 32.3902C480.209 33.5178 479.667 34.8664 479.446 36.4362ZM532.76 58.6228C530.196 58.6228 527.775 58.1695 525.497 57.263C523.242 56.3345 521.252 55.0521 519.528 53.4161C517.803 51.78 516.444 49.8675 515.449 47.6787C514.476 45.4899 513.99 43.1242 513.99 40.5817C513.99 38.1275 514.454 35.8171 515.382 33.6504C516.333 31.4616 517.649 29.5381 519.329 27.8799C521.031 26.2218 523.021 24.9173 525.298 23.9666C527.598 23.0159 530.074 22.5406 532.727 22.5406C534.938 22.5406 537.049 22.8612 539.061 23.5023C541.095 24.1435 542.776 24.9836 544.102 26.0228L541.151 31.5943C539.205 30.113 536.806 29.3723 533.954 29.3723C531.611 29.3723 529.588 29.8919 527.885 30.931C526.183 31.948 524.878 33.3188 523.972 35.0433C523.065 36.7457 522.612 38.5918 522.612 40.5817C522.612 42.682 523.088 44.5834 524.038 46.2858C524.989 47.9661 526.327 49.3037 528.051 50.2987C529.776 51.2936 531.765 51.791 534.021 51.791C535.413 51.791 536.718 51.592 537.934 51.1941C539.172 50.7961 540.233 50.2544 541.118 49.5691L544.102 55.1406C542.754 56.1576 541.084 56.9867 539.095 57.6279C537.105 58.2911 534.993 58.6228 532.76 58.6228ZM563.338 58.6228C560.265 58.6228 557.866 57.6279 556.142 55.638C554.439 53.6482 553.588 50.8514 553.588 47.2476V29.8698H549.443V23.6018H553.588V10.9001H561.846V23.6018H569.673V29.8698H561.846V46.6838C561.846 48.1651 562.144 49.3037 562.741 50.0997C563.338 50.8735 564.189 51.2604 565.295 51.2604C566.445 51.2604 567.495 50.9067 568.446 50.1992L570.535 56.7988C569.54 57.3736 568.401 57.8158 567.119 58.1253C565.837 58.4569 564.576 58.6228 563.338 58.6228ZM583.545 67.776L581.224 65.8856C581.732 65.3771 582.241 64.6807 582.749 63.7963C583.28 62.9341 583.744 62.0055 584.142 61.0106C584.54 60.0156 584.784 59.076 584.872 58.1916C583.59 57.9042 582.562 57.2962 581.788 56.3676C581.036 55.439 580.66 54.3336 580.66 53.0512C580.66 51.4594 581.169 50.166 582.186 49.1711C583.225 48.1762 584.562 47.6787 586.198 47.6787C587.879 47.6787 589.216 48.2093 590.211 49.2706C591.206 50.3318 591.704 51.8021 591.704 53.6814C591.704 55.9807 590.963 58.4017 589.482 60.9442C588.022 63.4868 586.044 65.764 583.545 67.776ZM636.522 58.6228C633.383 58.6228 630.531 57.8489 627.966 56.3013C625.424 54.7315 623.401 52.587 621.897 49.8675C620.416 47.1481 619.675 44.0418 619.675 40.5485C619.675 37.0995 620.394 34.0263 621.831 31.329C623.29 28.6095 625.291 26.465 627.834 24.8952C630.376 23.3255 633.272 22.5406 636.522 22.5406C639.176 22.5406 641.619 23.0933 643.852 24.1988C646.085 25.3042 647.853 26.8408 649.158 28.8085V23.6018H657.416V57.5615H649.158V52.1227C647.654 54.1788 645.808 55.7817 643.619 56.9314C641.453 58.059 639.087 58.6228 636.522 58.6228ZM638.877 51.5589C640.933 51.5589 642.746 51.0946 644.316 50.166C645.886 49.2153 647.124 47.9109 648.03 46.2527C648.937 44.5945 649.39 42.7042 649.39 40.5817C649.39 38.4371 648.937 36.5467 648.03 34.9107C647.124 33.2525 645.886 31.9591 644.316 31.0305C642.746 30.0798 640.933 29.6045 638.877 29.6045C636.843 29.6045 635.03 30.0798 633.438 31.0305C631.846 31.9591 630.597 33.2525 629.691 34.9107C628.784 36.5689 628.331 38.4592 628.331 40.5817C628.331 42.7042 628.784 44.5945 629.691 46.2527C630.597 47.9109 631.846 49.2153 633.438 50.166C635.03 51.0946 636.843 51.5589 638.877 51.5589ZM670.226 57.5615V23.6018H678.483V27.681C679.655 26.1775 681.214 24.9505 683.16 23.9998C685.127 23.027 687.371 22.5406 689.892 22.5406C692.501 22.5406 694.778 23.1044 696.724 24.2319C698.691 25.3374 700.217 26.9071 701.3 28.9412C702.383 30.9752 702.925 33.3851 702.925 36.1709V57.5615H694.667V37.8954C694.667 35.0654 693.96 32.8877 692.545 31.3621C691.152 29.8145 689.217 29.0407 686.741 29.0407C685.039 29.0407 683.569 29.3944 682.33 30.1019C681.092 30.7873 680.142 31.7159 679.478 32.8877C678.815 34.0374 678.483 35.3197 678.483 36.7347V57.5615H670.226ZM729.341 58.6228C726.245 58.6228 723.415 57.8489 720.851 56.3013C718.308 54.7537 716.285 52.6201 714.782 49.9007C713.3 47.1813 712.56 44.0749 712.56 40.5817C712.56 37.1105 713.289 34.0263 714.749 31.329C716.23 28.6095 718.242 26.465 720.784 24.8952C723.349 23.3255 726.267 22.5406 729.54 22.5406C732.149 22.5406 734.547 23.0933 736.736 24.1988C738.925 25.3042 740.694 26.8408 742.042 28.8085V0.486662H750.3V57.5615H742.042V52.1227C740.561 54.1567 738.715 55.7486 736.504 56.8982C734.315 58.0479 731.927 58.6228 729.341 58.6228ZM731.728 51.5589C733.785 51.5589 735.598 51.0946 737.167 50.166C738.759 49.2153 740.008 47.9219 740.915 46.2858C741.821 44.6277 742.275 42.7373 742.275 40.6148C742.275 38.4924 741.821 36.602 740.915 34.9438C740.008 33.2635 738.759 31.9591 737.167 31.0305C735.598 30.0798 733.785 29.6045 731.728 29.6045C729.716 29.6045 727.915 30.0798 726.323 31.0305C724.731 31.9591 723.482 33.2635 722.575 34.9438C721.669 36.602 721.216 38.5034 721.216 40.648C721.216 42.7484 721.658 44.6277 722.542 46.2858C723.449 47.9219 724.698 49.2153 726.29 50.166C727.881 51.0946 729.694 51.5589 731.728 51.5589ZM13.1932 149.623C10.3411 149.623 7.79858 149.092 5.56556 148.031C3.35464 146.948 1.55274 145.4 0.159859 143.388L3.80787 138.015C5.11232 139.74 6.56047 141.078 8.15233 142.028C9.7663 142.979 11.4355 143.454 13.1601 143.454C14.2213 143.454 15.1609 143.266 15.979 142.891C16.797 142.493 17.4492 141.929 17.9356 141.199C18.422 140.447 18.6652 139.563 18.6652 138.546C18.6652 137.485 18.3889 136.656 17.8362 136.059C17.2834 135.462 16.4543 134.92 15.3489 134.434C14.2434 133.947 12.8505 133.373 11.1702 132.709C9.75525 132.112 8.40659 131.449 7.12425 130.719C5.84192 129.99 4.78068 129.072 3.94053 127.967C3.12249 126.839 2.71347 125.413 2.71347 123.689C2.71347 121.721 3.25515 119.974 4.3385 118.449C5.44395 116.923 6.94738 115.729 8.84877 114.867C10.7723 114.005 12.9611 113.574 15.4152 113.574C17.1839 113.574 18.9637 113.894 20.7546 114.535C22.5454 115.155 24.3363 116.061 26.1271 117.255L23.1424 122.462C20.5556 120.317 18.002 119.245 15.4815 119.245C14.0002 119.245 12.8063 119.598 11.8998 120.306C11.0155 121.013 10.5733 121.92 10.5733 123.025C10.5733 123.932 10.9602 124.706 11.734 125.347C12.5078 125.988 13.4696 126.552 14.6193 127.038C15.7689 127.525 16.9186 127.989 18.0683 128.431C19.8813 129.094 21.4731 129.802 22.8439 130.554C24.2147 131.305 25.2869 132.278 26.0608 133.472C26.8346 134.666 27.2215 136.258 27.2215 138.248C27.2215 140.635 26.6467 142.68 25.497 144.383C24.3694 146.085 22.7554 147.39 20.6551 148.296C18.5547 149.181 16.0674 149.623 13.1932 149.623ZM53.5774 149.623C49.9515 149.623 46.7014 148.838 43.8272 147.268C40.9751 145.698 38.7089 143.554 37.0287 140.834C35.3705 138.115 34.5414 135.053 34.5414 131.648C34.5414 129.128 35.0167 126.773 35.9674 124.584C36.9181 122.395 38.2336 120.472 39.9139 118.814C41.5942 117.155 43.5509 115.862 45.7839 114.933C48.0169 114.005 50.4268 113.541 53.0136 113.541C56.5511 113.541 59.6463 114.27 62.2995 115.729C64.9747 117.189 67.0529 119.223 68.5342 121.832C70.0377 124.44 70.7894 127.48 70.7894 130.952C70.7894 131.239 70.7783 131.482 70.7562 131.681C70.7341 131.858 70.6899 132.168 70.6236 132.61H42.965C42.965 134.666 43.4293 136.479 44.3578 138.049C45.2864 139.596 46.5798 140.812 48.238 141.697C49.9183 142.559 51.8418 142.99 54.0085 142.99C56.0647 142.99 57.8887 142.581 59.4805 141.763C61.0945 140.923 62.5537 139.652 63.8581 137.949L69.8608 141.033C68.2468 143.731 66.0027 145.842 63.1285 147.368C60.2765 148.871 57.0927 149.623 53.5774 149.623ZM43.3298 127.436H62.5979C62.3105 125.889 61.7246 124.551 60.8402 123.423C59.9559 122.296 58.8394 121.422 57.4907 120.803C56.142 120.162 54.6386 119.842 52.9804 119.842C51.2338 119.842 49.6751 120.151 48.3043 120.77C46.9336 121.389 45.8171 122.263 44.9548 123.39C44.0925 124.518 43.5509 125.866 43.3298 127.436ZM80.6618 148.562V91.5198H88.9196V148.562H80.6618ZM101.713 148.562V91.5198H109.971V148.562H101.713ZM465.127 148.562V93.8413H473.816L499.485 134.003V93.8413H508.173V148.562H499.485L473.816 108.433V148.562H465.127ZM524.135 148.562V93.8413H553.75V101.469H530.469L532.824 99.4128V120.306L530.469 117.321H552.291V124.949H530.469L532.824 121.964V148.562H524.135ZM571.47 148.562V101.568H556.579V93.8413H595.049V101.568H580.125V148.562H571.47ZM607.939 149.623C605.087 149.623 602.544 149.092 600.311 148.031C598.1 146.948 596.298 145.4 594.906 143.388L598.554 138.015C599.858 139.74 601.306 141.078 602.898 142.028C604.512 142.979 606.181 143.454 607.906 143.454C608.967 143.454 609.907 143.266 610.725 142.891C611.543 142.493 612.195 141.929 612.681 141.199C613.168 140.447 613.411 139.563 613.411 138.546C613.411 137.485 613.135 136.656 612.582 136.059C612.029 135.462 611.2 134.92 610.095 134.434C608.989 133.947 607.596 133.373 605.916 132.709C604.501 132.112 603.152 131.449 601.87 130.719C600.588 129.99 599.526 129.072 598.686 127.967C597.868 126.839 597.459 125.413 597.459 123.689C597.459 121.721 598.001 119.974 599.084 118.449C600.19 116.923 601.693 115.729 603.594 114.867C605.518 114.005 607.707 113.574 610.161 113.574C611.93 113.574 613.709 113.894 615.5 114.535C617.291 115.155 619.082 116.061 620.873 117.255L617.888 122.462C615.301 120.317 612.748 119.245 610.227 119.245C608.746 119.245 607.552 119.598 606.646 120.306C605.761 121.013 605.319 121.92 605.319 123.025C605.319 123.932 605.706 124.706 606.48 125.347C607.254 125.988 608.215 126.552 609.365 127.038C610.515 127.525 611.664 127.989 612.814 128.431C614.627 129.094 616.219 129.802 617.59 130.554C618.96 131.305 620.033 132.278 620.806 133.472C621.58 134.666 621.967 136.258 621.967 138.248C621.967 140.635 621.392 142.68 620.243 144.383C619.115 146.085 617.501 147.39 615.401 148.296C613.3 149.181 610.813 149.623 607.939 149.623Z" fill="white"/>
<path d="M150.963 148.562V101.568H136.073V93.8413H174.543V101.568H159.619V148.562H150.963ZM183.035 148.562V114.602H191.293V148.562H183.035ZM187.18 107.637C186.274 107.637 185.434 107.416 184.66 106.974C183.908 106.51 183.3 105.902 182.836 105.15C182.394 104.376 182.173 103.525 182.173 102.597C182.173 101.69 182.394 100.861 182.836 100.109C183.3 99.3575 183.908 98.7606 184.66 98.3184C185.434 97.8541 186.274 97.622 187.18 97.622C188.109 97.622 188.938 97.8541 189.668 98.3184C190.419 98.7606 191.016 99.3575 191.458 100.109C191.923 100.861 192.155 101.69 192.155 102.597C192.155 103.525 191.923 104.376 191.458 105.15C191.016 105.902 190.419 106.51 189.668 106.974C188.938 107.416 188.109 107.637 187.18 107.637ZM204.119 148.562V114.602H212.377V118.681C213.947 116.934 215.594 115.641 217.318 114.801C219.065 113.961 220.977 113.541 223.056 113.541C225.731 113.541 228.108 114.149 230.186 115.365C232.286 116.581 233.768 118.217 234.63 120.273C236.155 118.106 237.891 116.448 239.837 115.298C241.782 114.126 244.037 113.541 246.602 113.541C249.034 113.541 251.19 114.049 253.069 115.066C254.97 116.061 256.463 117.498 257.546 119.377C258.651 121.235 259.204 123.479 259.204 126.11V148.562H250.946V128.365C250.946 125.844 250.283 123.855 248.957 122.395C247.652 120.914 245.894 120.173 243.684 120.173C242.18 120.173 240.831 120.494 239.638 121.135C238.444 121.776 237.504 122.627 236.819 123.689C236.133 124.75 235.791 125.889 235.791 127.105V148.562H227.533V128.033C227.533 125.645 226.892 123.744 225.609 122.329C224.327 120.892 222.58 120.173 220.369 120.173C218.844 120.173 217.473 120.494 216.257 121.135C215.063 121.776 214.113 122.627 213.405 123.689C212.72 124.728 212.377 125.855 212.377 127.071V148.562H204.119ZM287.602 149.623C283.976 149.623 280.726 148.838 277.852 147.268C275 145.698 272.734 143.554 271.054 140.834C269.395 138.115 268.566 135.053 268.566 131.648C268.566 129.128 269.042 126.773 269.992 124.584C270.943 122.395 272.258 120.472 273.939 118.814C275.619 117.155 277.576 115.862 279.809 114.933C282.042 114.005 284.452 113.541 287.038 113.541C290.576 113.541 293.671 114.27 296.324 115.729C299 117.189 301.078 119.223 302.559 121.832C304.063 124.44 304.814 127.48 304.814 130.952C304.814 131.239 304.803 131.482 304.781 131.681C304.759 131.858 304.715 132.168 304.648 132.61H276.99C276.99 134.666 277.454 136.479 278.383 138.049C279.311 139.596 280.605 140.812 282.263 141.697C283.943 142.559 285.867 142.99 288.033 142.99C290.09 142.99 291.914 142.581 293.505 141.763C295.119 140.923 296.579 139.652 297.883 137.949L303.886 141.033C302.272 143.731 300.028 145.842 297.153 147.368C294.301 148.871 291.118 149.623 287.602 149.623ZM277.355 127.436H296.623C296.335 125.889 295.749 124.551 294.865 123.423C293.981 122.296 292.864 121.422 291.516 120.803C290.167 120.162 288.663 119.842 287.005 119.842C285.259 119.842 283.7 120.151 282.329 120.77C280.958 121.389 279.842 122.263 278.98 123.39C278.117 124.518 277.576 125.866 277.355 127.436ZM314.687 148.562V91.5198H322.944V148.562H314.687ZM351.922 149.623C348.296 149.623 345.046 148.838 342.172 147.268C339.32 145.698 337.053 143.554 335.373 140.834C333.715 138.115 332.886 135.053 332.886 131.648C332.886 129.128 333.361 126.773 334.312 124.584C335.263 122.395 336.578 120.472 338.258 118.814C339.939 117.155 341.895 115.862 344.128 114.933C346.361 114.005 348.771 113.541 351.358 113.541C354.895 113.541 357.991 114.27 360.644 115.729C363.319 117.189 365.397 119.223 366.879 121.832C368.382 124.44 369.134 127.48 369.134 130.952C369.134 131.239 369.123 131.482 369.101 131.681C369.079 131.858 369.034 132.168 368.968 132.61H341.309C341.309 134.666 341.774 136.479 342.702 138.049C343.631 139.596 344.924 140.812 346.582 141.697C348.263 142.559 350.186 142.99 352.353 142.99C354.409 142.99 356.233 142.581 357.825 141.763C359.439 140.923 360.898 139.652 362.203 137.949L368.205 141.033C366.591 143.731 364.347 145.842 361.473 147.368C358.621 148.871 355.437 149.623 351.922 149.623ZM341.674 127.436H360.942C360.655 125.889 360.069 124.551 359.185 123.423C358.3 122.296 357.184 121.422 355.835 120.803C354.486 120.162 352.983 119.842 351.325 119.842C349.578 119.842 348.02 120.151 346.649 120.77C345.278 121.389 344.161 122.263 343.299 123.39C342.437 124.518 341.895 125.866 341.674 127.436ZM388.229 149.623C385.377 149.623 382.834 149.092 380.601 148.031C378.39 146.948 376.588 145.4 375.196 143.388L378.844 138.015C380.148 139.74 381.596 141.078 383.188 142.028C384.802 142.979 386.471 143.454 388.196 143.454C389.257 143.454 390.197 143.266 391.015 142.891C391.833 142.493 392.485 141.929 392.971 141.199C393.458 140.447 393.701 139.563 393.701 138.546C393.701 137.485 393.425 136.656 392.872 136.059C392.319 135.462 391.49 134.92 390.385 134.434C389.279 133.947 387.886 133.373 386.206 132.709C384.791 132.112 383.442 131.449 382.16 130.719C380.878 129.99 379.816 129.072 378.976 127.967C378.158 126.839 377.749 125.413 377.749 123.689C377.749 121.721 378.291 119.974 379.374 118.449C380.48 116.923 381.983 115.729 383.884 114.867C385.808 114.005 387.997 113.574 390.451 113.574C392.22 113.574 393.999 113.894 395.79 114.535C397.581 115.155 399.372 116.061 401.163 117.255L398.178 122.462C395.591 120.317 393.038 119.245 390.517 119.245C389.036 119.245 387.842 119.598 386.936 120.306C386.051 121.013 385.609 121.92 385.609 123.025C385.609 123.932 385.996 124.706 386.77 125.347C387.544 125.988 388.505 126.552 389.655 127.038C390.805 127.525 391.954 127.989 393.104 128.431C394.917 129.094 396.509 129.802 397.88 130.554C399.25 131.305 400.323 132.278 401.096 133.472C401.87 134.666 402.257 136.258 402.257 138.248C402.257 140.635 401.682 142.68 400.533 144.383C399.405 146.085 397.791 147.39 395.691 148.296C393.59 149.181 391.103 149.623 388.229 149.623ZM421.781 149.623C418.929 149.623 416.387 149.092 414.154 148.031C411.943 146.948 410.141 145.4 408.748 143.388L412.396 138.015C413.7 139.74 415.149 141.078 416.74 142.028C418.354 142.979 420.024 143.454 421.748 143.454C422.809 143.454 423.749 143.266 424.567 142.891C425.385 142.493 426.037 141.929 426.524 141.199C427.01 140.447 427.253 139.563 427.253 138.546C427.253 137.485 426.977 136.656 426.424 136.059C425.871 135.462 425.042 134.92 423.937 134.434C422.831 133.947 421.439 133.373 419.758 132.709C418.343 132.112 416.995 131.449 415.712 130.719C414.43 129.99 413.369 129.072 412.529 127.967C411.711 126.839 411.302 125.413 411.302 123.689C411.302 121.721 411.843 119.974 412.927 118.449C414.032 116.923 415.535 115.729 417.437 114.867C419.36 114.005 421.549 113.574 424.003 113.574C425.772 113.574 427.552 113.894 429.343 114.535C431.133 115.155 432.924 116.061 434.715 117.255L431.73 122.462C429.144 120.317 426.59 119.245 424.07 119.245C422.588 119.245 421.394 119.598 420.488 120.306C419.604 121.013 419.161 121.92 419.161 123.025C419.161 123.932 419.548 124.706 420.322 125.347C421.096 125.988 422.058 126.552 423.207 127.038C424.357 127.525 425.507 127.989 426.656 128.431C428.469 129.094 430.061 129.802 431.432 130.554C432.803 131.305 433.875 132.278 434.649 133.472C435.423 134.666 435.81 136.258 435.81 138.248C435.81 140.635 435.235 142.68 434.085 144.383C432.957 146.085 431.344 147.39 429.243 148.296C427.143 149.181 424.655 149.623 421.781 149.623Z" fill="url(#paint0_linear_2_352)"/>
<defs>
<linearGradient id="paint0_linear_2_352" x1="443.493" y1="148.431" x2="141.703" y2="89.8419" gradientUnits="userSpaceOnUse">
<stop stop-color="#43A5E3"/>
<stop offset="1" stop-color="#FF56F6"/>
</linearGradient>
</defs>
</svg>
