<svg aria-hidden="true" style="position: absolute; width: 0; height: 0; overflow: hidden;" version="1.1" xmlns="http://www.w3.org/2000/svg" xmlns:xlink="http://www.w3.org/1999/xlink">
<defs>
<symbol id="icon-vector" viewBox="0 0 32 32">
<path d="M15.975 1.482l-8.871 14.721 8.871-4.032v-10.689z"></path>
<path d="M15.975 12.171l-8.871 4.032 8.871 5.245v-9.277z"></path>
<path d="M24.847 16.203l-8.873-14.721v10.689l8.873 4.032z"></path>
<path d="M15.974 21.448l8.873-5.245-8.873-4.032v9.277z"></path>
<path d="M7.104 17.886l8.871 12.502v-7.26l-8.871-5.242z"></path>
<path d="M15.974 23.128v7.26l8.878-12.502-8.878 5.242z"></path>
</symbol>

<symbol id="icon-button" viewBox="0 0 52 32">
<path d="M39.806 12.126c0-0.138-0.112-0.249-0.249-0.249h-23.12c-0.037 0-0.073 0.008-0.107 0.024l-4.532 2.148c-0.087 0.041-0.143 0.129-0.143 0.225v4.579c0 0.138 0.112 0.249 0.249 0.249h23.962c0.038 0 0.075-0.009 0.109-0.025l3.69-1.803c0.086-0.042 0.14-0.129 0.14-0.224v-4.924z"></path>
</symbol>

<symbol id="icon-arrow" viewBox="0 0 103 32">
<path d="M83.498 27.184l10.486-10.486-10.486-10.486 2.097-4.195 14.681 14.681-14.681 14.681-2.097-4.195z"></path>
<path  stroke-linejoin="miter" stroke-linecap="butt" stroke-miterlimit="4" stroke-width="4.1946" d="M93.985 16.698l-92.28-0"></path>
</symbol>


<symbol id="icon-logo1" viewBox="0 0 159 32">
<path d="M9.535 13.268l6.142-6.132 6.145 6.135 3.574-3.568-9.719-9.704-9.716 9.7 3.574 3.568z"></path>
<path d="M7.011 15.787l-3.574-3.568-3.574 3.568 3.574 3.568 3.574-3.568z"></path>
<path d="M9.535 18.307l6.142 6.132 6.145-6.135 3.576 3.566-0.002 0.002-9.719 9.703-9.721-9.705 3.579-3.563z"></path>
<path d="M27.917 19.357l3.574-3.568-3.574-3.568-3.574 3.568 3.574 3.568z"></path>
<path d="M19.302 15.786h0.001l-3.627-3.621-3.628 3.622 0.005 0.005 3.623 3.617 3.628-3.623-0.003-0.002z"></path>
<path d="M37.063 7.651h7.773c1.929 0 3.388 0.494 4.377 1.483 0.765 0.766 1.148 1.715 1.148 2.847v0.048c0 0.478-0.059 0.901-0.178 1.268s-0.278 0.697-0.476 0.993c-0.198 0.295-0.428 0.554-0.69 0.777s-0.544 0.415-0.845 0.574c0.97 0.367 1.733 0.865 2.29 1.495s0.835 1.503 0.835 2.619v0.048c0 0.766-0.147 1.435-0.442 2.010s-0.718 1.052-1.268 1.435-1.212 0.67-1.985 0.861c-0.773 0.191-1.63 0.287-2.571 0.287h-7.965v-16.744zM44.059 14.42c0.815 0 1.462-0.139 1.941-0.418s0.719-0.73 0.719-1.351v-0.048c0-0.558-0.208-0.984-0.623-1.28s-1.014-0.443-1.797-0.443h-3.642v3.54h3.402zM45.041 21.166c0.815 0 1.453-0.147 1.917-0.442s0.695-0.754 0.695-1.376v-0.048c0-0.558-0.216-1.001-0.647-1.328s-1.126-0.49-2.085-0.49h-4.265v3.684l4.385-0z"></path>
<path d="M55.924 7.651h3.69v16.744h-3.69v-16.744z"></path>
<path d="M65.203 7.651h3.402l7.859 10.31v-10.31h3.642v16.744h-3.139l-8.123-10.645v10.645h-3.642v-16.744z"></path>
<path d="M91.277 7.532h3.402l7.188 16.864h-3.858l-1.533-3.755h-7.092l-1.533 3.755h-3.762l7.189-16.864zM95.158 17.386l-2.228-5.43-2.228 5.43h4.456z"></path>
<path d="M105.85 7.651h3.402l7.858 10.31v-10.31h3.642v16.744h-3.139l-8.122-10.645v10.645h-3.642v-16.744z"></path>
<path d="M134.033 24.682c-1.23 0-2.372-0.223-3.426-0.67-1.055-0.446-1.965-1.056-2.732-1.83s-1.366-1.686-1.796-2.739c-0.431-1.053-0.647-2.177-0.647-3.373v-0.048c0-1.196 0.215-2.316 0.647-3.361s1.030-1.961 1.796-2.751 1.686-1.412 2.755-1.866c1.070-0.454 2.253-0.682 3.546-0.682 0.782 0 1.497 0.064 2.144 0.191s1.234 0.303 1.761 0.526c0.527 0.223 1.014 0.495 1.462 0.813 0.447 0.319 0.862 0.67 1.246 1.053l-2.348 2.703c-0.655-0.59-1.322-1.053-2.001-1.387-0.68-0.335-1.442-0.502-2.289-0.502-0.703 0-1.354 0.136-1.952 0.407-0.599 0.271-1.114 0.646-1.546 1.124s-0.767 1.033-1.006 1.662c-0.239 0.63-0.359 1.304-0.359 2.021v0.048c0 0.717 0.119 1.396 0.359 2.033s0.57 1.196 0.994 1.674 0.935 0.857 1.534 1.136c0.599 0.279 1.258 0.419 1.976 0.419 0.959 0 1.769-0.175 2.432-0.526s1.322-0.829 1.976-1.435l2.348 2.368c-0.431 0.463-0.878 0.877-1.341 1.244-0.463 0.367-0.971 0.682-1.523 0.945-0.551 0.263-1.154 0.463-1.809 0.598-0.655 0.135-1.389 0.203-2.204 0.203z"></path>
<path d="M145.251 7.651h12.627v3.277h-8.984v3.397h7.906v3.277h-7.906v3.516h9.105v3.277h-12.747v-16.744z"></path>
</symbol>

<symbol id="icon-logo2" viewBox="0 0 102 32">
<path d="M33.727 15.676c-0.123-1.415-1.213-2.706-2.714-2.706s-2.569 1.291-2.713 2.706h5.427zM34.343 15.957c-0.001 0.078-0.032 0.153-0.088 0.208s-0.131 0.086-0.209 0.085h-5.745c0.144 1.415 1.212 2.707 2.713 2.707 1.028 0 1.789-0.39 2.364-1.21 0.084-0.112 0.206-0.185 0.366-0.117 0.037 0.016 0.069 0.040 0.096 0.070s0.047 0.065 0.059 0.103c0.012 0.038 0.016 0.079 0.011 0.118s-0.018 0.078-0.039 0.112c-0.575 1.005-1.726 1.497-2.857 1.497-1.932 0-3.309-1.721-3.309-3.567s1.378-3.567 3.309-3.567c1.93 0 3.327 1.718 3.33 3.561h-0.001zM41.312 12.539c0.165 0 0.288 0.144 0.288 0.287 0 0.164-0.123 0.287-0.288 0.287h-1.542v6.028c-0.002 0.075-0.032 0.148-0.086 0.201s-0.126 0.084-0.202 0.086c-0.076-0.001-0.148-0.032-0.202-0.086s-0.085-0.126-0.086-0.201v-6.028h-1.48c-0.038 0.001-0.076-0.006-0.111-0.020s-0.067-0.035-0.094-0.062c-0.027-0.027-0.048-0.059-0.062-0.094s-0.021-0.073-0.020-0.111c0-0.143 0.123-0.287 0.288-0.287h1.48v-2.207c0-0.139 0.095-0.268 0.232-0.29 0.191-0.032 0.343 0.1 0.343 0.282v2.214h1.542zM50.705 15.45v3.65c0 0.164-0.144 0.286-0.288 0.286-0.038 0.001-0.076-0.006-0.111-0.020s-0.067-0.035-0.094-0.062c-0.027-0.027-0.048-0.059-0.062-0.094s-0.021-0.073-0.020-0.111v-3.65c0-1.23-0.699-2.46-2.076-2.46-1.768 0-2.528 1.538-2.425 3.116 0 0.041 0.020 0.225 0.020 0.246v2.74c0 0.139-0.095 0.268-0.232 0.291-0.192 0.031-0.344-0.101-0.344-0.283v-11.994c0-0.143 0.123-0.287 0.287-0.287s0.288 0.143 0.288 0.287v6.786c0.494-0.882 1.377-1.476 2.405-1.476 1.686 0 2.652 1.476 2.652 3.034zM60.387 15.676c-0.123-1.415-1.213-2.706-2.714-2.706s-2.569 1.291-2.713 2.706h5.427zM61.003 15.957c-0.001 0.078-0.032 0.153-0.088 0.208s-0.131 0.086-0.21 0.085h-5.745c0.144 1.415 1.212 2.707 2.713 2.707 1.028 0 1.789-0.39 2.364-1.21 0.084-0.112 0.206-0.185 0.366-0.117 0.037 0.016 0.070 0.040 0.096 0.070s0.047 0.065 0.059 0.103c0.012 0.038 0.016 0.079 0.011 0.118s-0.018 0.078-0.039 0.112c-0.575 1.005-1.726 1.497-2.857 1.497-1.932 0-3.309-1.721-3.309-3.567s1.377-3.567 3.309-3.567c1.93 0 3.327 1.718 3.33 3.561h-0.001zM68.054 12.806c0 0.185-0.103 0.287-0.267 0.308-1.686 0.246-2.446 1.62-2.446 3.219v2.74c0 0.139-0.095 0.267-0.232 0.29-0.191 0.031-0.344-0.101-0.344-0.283v-6.246c0-0.139 0.095-0.267 0.232-0.29 0.192-0.031 0.344 0.101 0.344 0.283v1.271c0.472-0.8 1.418-1.558 2.405-1.558 0.144 0 0.308 0.102 0.308 0.266zM76.871 15.676c-0.123-1.415-1.212-2.706-2.713-2.706s-2.569 1.291-2.713 2.706h5.426zM77.488 15.957c-0.001 0.078-0.033 0.153-0.088 0.208s-0.131 0.086-0.209 0.085h-5.745c0.144 1.415 1.212 2.707 2.713 2.707 1.028 0 1.788-0.39 2.364-1.21 0.084-0.112 0.206-0.185 0.367-0.117 0.042 0.018 0.079 0.047 0.108 0.083s0.047 0.079 0.055 0.124c0.013 0.068 0 0.139-0.036 0.198-0.576 1.004-1.727 1.497-2.857 1.497-1.932 0-3.309-1.722-3.309-3.568 0-1.845 1.377-3.567 3.309-3.567 1.93 0 3.327 1.718 3.33 3.561h-0.001zM86.758 12.878v6.263c0 0.164-0.144 0.287-0.287 0.287-0.038 0.001-0.076-0.006-0.111-0.020s-0.067-0.035-0.094-0.062c-0.027-0.027-0.048-0.059-0.062-0.094s-0.021-0.073-0.020-0.111v-1.189c-0.472 0.943-1.315 1.62-2.384 1.62-1.706 0-2.651-1.477-2.651-3.034v-3.669c0-0.144 0.123-0.288 0.287-0.288s0.288 0.144 0.288 0.287v3.67c0 1.23 0.698 2.46 2.075 2.46 1.932 0 2.384-1.804 2.384-3.794v-2.337c0.001-0.045 0.011-0.088 0.032-0.128s0.050-0.074 0.085-0.101c0.036-0.027 0.077-0.045 0.121-0.053s0.089-0.006 0.132 0.006c0.060 0.019 0.113 0.058 0.15 0.109s0.056 0.114 0.055 0.177zM101.29 15.43v3.669c0 0.165-0.144 0.287-0.287 0.287-0.038 0.001-0.076-0.006-0.111-0.020s-0.067-0.035-0.094-0.062c-0.027-0.027-0.048-0.059-0.062-0.094s-0.021-0.073-0.020-0.111v-3.67c0-1.23-0.698-2.439-2.076-2.439-1.726 0-2.384 1.845-2.384 3.28v2.829c0 0.164-0.144 0.287-0.288 0.287-0.038 0.001-0.076-0.006-0.111-0.020s-0.067-0.035-0.094-0.062c-0.027-0.027-0.048-0.059-0.062-0.094s-0.021-0.073-0.020-0.111v-3.67c0-1.23-0.699-2.439-2.076-2.439-1.748 0-2.467 1.373-2.405 3.198 0 0.041 0.021 0.123 0 0.143v2.761c0 0.139-0.094 0.266-0.232 0.289-0.192 0.032-0.344-0.101-0.344-0.282v-6.266c0-0.139 0.095-0.268 0.232-0.29 0.191-0.031 0.343 0.101 0.343 0.283v1.045c0.494-0.881 1.378-1.455 2.406-1.455 1.171 0 2.075 0.738 2.445 1.824 0.472-1.066 1.397-1.825 2.59-1.825 1.686 0 2.652 1.456 2.652 3.014z"></path>
<path d="M0.207 16.568l9.599 5.66v-21.545l-9.599 15.886z"></path>
<path d="M9.806 0.682v21.545l9.599-5.66-9.599-15.886z"></path>
<path d="M9.806 12.217l-9.599 4.351 9.599 5.66 9.599-5.659-9.599-4.352z"></path>
<path d="M9.806 12.217l-9.599 4.351 9.599 5.66 0.001-10.011z"></path>
<path d="M0.207 18.384l9.599 13.492v-7.835l-9.599-5.656z"></path>
<path d="M9.806 24.040v7.836l9.605-13.492-9.605 5.656z"></path>
</symbol>

<symbol id="icon-logo3" viewBox="0 0 209 32">
<path d="M55.855 21.386v-5.081c0-2.629-2.124-4.756-4.779-4.756h-0.207c-1.032 0-2.065 0.354-2.566 0.975v-6.026c0-0.739-0.561-1.122-1.121-1.122s-1.121 0.384-1.121 1.122v18.579c0 0.709 0.561 1.063 1.121 1.063 0.502 0 1.003-0.296 1.092-0.886 0.413 0.413 1.268 0.886 2.537 0.886h0.266c2.625 0 4.779-2.126 4.779-4.755zM53.613 21.386c0 1.388-1.121 2.511-2.537 2.511h-0.266c-1.327 0-2.507-0.886-2.507-2.334v-5.494c0-1.359 1.18-2.274 2.507-2.274h0.266c1.416 0 2.537 1.123 2.537 2.511v5.081zM65.265 25.019c0-0.561-0.354-1.122-1.121-1.122-0.915-0.030-1.623-0.739-1.623-1.654v-15.744c0-0.739-0.56-1.122-1.121-1.122s-1.121 0.384-1.121 1.122v15.744c0 2.156 1.711 3.899 3.865 3.899 0.767 0 1.121-0.561 1.121-1.123zM78.126 21.386v-5.081c0-2.629-2.124-4.756-4.749-4.756h-0.295c-2.625 0-4.749 2.127-4.749 4.756v5.081c0 2.629 2.124 4.755 4.749 4.755h0.295c2.625 0 4.749-2.126 4.749-4.755zM75.884 21.386c0 1.388-1.121 2.511-2.507 2.511h-0.266c-1.416 0-2.537-1.123-2.537-2.511v-5.081c0-1.388 1.121-2.511 2.507-2.511h0.295c1.386 0 2.507 1.123 2.507 2.511v5.081zM91.724 21.386c0-0.768-0.56-1.152-1.121-1.152-0.531 0-1.092 0.384-1.121 1.152-0.059 1.388-1.121 2.511-2.507 2.511h-0.266c-1.416 0-2.537-1.123-2.537-2.511v-5.081c0-1.388 1.121-2.511 2.507-2.511h0.295c1.386 0 2.448 1.034 2.507 2.54 0.029 0.739 0.59 1.093 1.121 1.093 0.561 0 1.121-0.384 1.121-1.123 0-2.629-2.153-4.756-4.749-4.756h-0.295c-2.596 0-4.749 2.097-4.749 4.756v5.081c0 2.629 2.124 4.755 4.749 4.755h0.295c2.626 0 4.75-2.126 4.75-4.755zM105.853 25.019c0-0.177-0.029-0.384-0.147-0.561l-4.041-7.089 3.658-3.899c0.236-0.236 0.325-0.502 0.325-0.768 0-0.591-0.502-1.152-1.15-1.152-0.266 0-0.561 0.118-0.797 0.384l-5.605 5.967v-11.401c0-0.739-0.561-1.122-1.121-1.122s-1.121 0.384-1.121 1.122v18.52c0 0.739 0.561 1.123 1.121 1.123s1.121-0.384 1.121-1.123v-3.811l1.976-2.126 3.687 6.469c0.236 0.414 0.59 0.591 0.944 0.591 0.679 0 1.15-0.532 1.15-1.123zM118.596 21.386c0-0.768-0.561-1.152-1.121-1.152-0.531 0-1.092 0.384-1.121 1.152-0.060 1.388-1.121 2.511-2.507 2.511h-0.266c-1.416 0-2.537-1.123-2.537-2.511v-5.081c0-1.388 1.121-2.511 2.507-2.511h0.296c1.386 0 2.447 1.034 2.507 2.54 0.029 0.739 0.59 1.093 1.121 1.093 0.561 0 1.121-0.384 1.121-1.123 0-2.629-2.154-4.756-4.749-4.756h-0.296c-2.595 0-4.749 2.097-4.749 4.756v5.081c0 2.629 2.123 4.755 4.749 4.755h0.296c2.625 0 4.749-2.126 4.749-4.755zM132.52 25.019v-8.713c0-2.629-2.124-4.756-4.75-4.756h-0.236c-1.032 0-2.065 0.354-2.567 0.886v-5.937c0-0.739-0.559-1.122-1.12-1.122s-1.121 0.384-1.121 1.122v18.52c0 0.739 0.561 1.123 1.121 1.123s1.12-0.384 1.12-1.123v-8.861c0-1.536 1.329-2.363 2.686-2.363 1.298 0 2.624 0.798 2.624 2.511v8.713c0 0.739 0.561 1.123 1.121 1.123s1.122-0.384 1.122-1.123zM147.267 24.991c0-0.473-0.295-0.946-0.943-1.064-0.531-0.088-0.767-0.444-0.767-0.975v-6.853c0-2.54-2.006-4.549-4.631-4.549h-0.206c-1.564 0-3.452 0.62-4.396 2.747-0.088 0.177-0.118 0.354-0.118 0.532 0 0.62 0.562 1.034 1.121 1.034 0.384 0 0.767-0.177 1.003-0.591 0.561-0.975 1.181-1.477 2.39-1.477h0.206c1.298 0 2.389 0.65 2.389 2.392 0 0.148 0 0.384-0.087 0.502-0.708 1.005-7.257 0.177-7.464 4.844v0.354c0 2.748 2.36 4.254 4.749 4.254h0.266c1.208 0 2.329-0.443 3.186-1.181 0.383 0.561 1.003 1.004 2.005 1.152 0.060 0.029 0.148 0.029 0.207 0.029 0.707 0 1.090-0.561 1.090-1.151zM143.315 21.386c0 1.388-1.151 2.511-2.537 2.511h-0.265c-1.505 0-2.508-0.798-2.508-2.068v-0.236c0.088-2.068 3.127-1.949 5.31-2.54v2.333zM153.049 25.019v-12.347c0-0.739-0.561-1.122-1.121-1.122s-1.121 0.384-1.121 1.122v12.347c0 0.739 0.561 1.123 1.121 1.123s1.121-0.384 1.121-1.123zM167.562 25.019v-8.713c0-3.249-2.212-4.756-4.719-4.756h-0.266c-1.033 0-2.006 0.354-2.537 0.886-0.117-0.591-0.62-0.886-1.121-0.886-0.59 0-1.15 0.413-1.15 1.122v12.347c0 0.739 0.561 1.123 1.121 1.123s1.12-0.384 1.12-1.123v-8.713c0-1.388 1.151-2.511 2.537-2.511h0.266c1.416 0 2.537 1.123 2.537 2.511v8.713c0 0.739 0.561 1.123 1.121 1.123s1.091-0.384 1.091-1.123zM179.137 25.019v-12.347c0-0.739-0.561-1.122-1.121-1.122-0.559 0-1.12 0.384-1.12 1.122v12.347c0 0.739 0.561 1.123 1.12 1.123 0.561 0 1.121-0.384 1.121-1.123zM193.325 21.386v-5.081c0-2.629-2.124-4.756-4.749-4.756h-0.295c-2.625 0-4.749 2.127-4.749 4.756v5.081c0 2.629 2.124 4.755 4.749 4.755h0.295c2.626 0 4.749-2.126 4.749-4.755zM191.084 21.386c0 1.388-1.121 2.511-2.508 2.511h-0.265c-1.417 0-2.537-1.123-2.537-2.511v-5.081c0-1.388 1.12-2.511 2.507-2.511h0.295c1.387 0 2.508 1.123 2.508 2.511v5.081z"></path>
<path d="M23.849 15.039c-0.683 0-1.238 0.556-1.238 1.24s0.556 1.24 1.238 1.24c0.683 0 1.239-0.556 1.239-1.24s-0.556-1.24-1.239-1.24z"></path>
<path d="M29.576 11.598c-0.683 0-1.238 0.556-1.238 1.24s0.555 1.24 1.238 1.24 1.239-0.556 1.239-1.24c0-0.684-0.556-1.24-1.239-1.24z"></path>
<path d="M35.303 8.157c-0.683 0-1.239 0.556-1.239 1.24s0.556 1.241 1.239 1.241c0.683 0 1.239-0.557 1.239-1.241s-0.555-1.24-1.239-1.24z"></path>
<path d="M18.122 4.716c-0.683 0-1.238 0.556-1.238 1.24s0.556 1.24 1.238 1.24c0.683 0 1.239-0.556 1.239-1.24s-0.555-1.24-1.239-1.24z"></path>
<path d="M23.849 1.275c-0.683 0-1.238 0.557-1.238 1.24s0.556 1.24 1.238 1.24c0.683 0 1.239-0.556 1.239-1.24s-0.556-1.24-1.239-1.24z"></path>
<path d="M23.849 8.157c-0.683 0-1.238 0.556-1.238 1.24s0.556 1.241 1.238 1.241c0.683 0 1.239-0.557 1.239-1.241s-0.556-1.24-1.239-1.24z"></path>
<path d="M29.576 4.716c-0.683 0-1.238 0.556-1.238 1.24s0.555 1.24 1.238 1.24 1.239-0.556 1.239-1.24c0-0.684-0.556-1.24-1.239-1.24z"></path>
<path d="M29.576 18.48c-0.683 0-1.238 0.556-1.238 1.24s0.555 1.24 1.238 1.24 1.239-0.556 1.239-1.24c0-0.684-0.556-1.24-1.239-1.24z"></path>
<path d="M35.303 15.039c-0.683 0-1.239 0.556-1.239 1.24s0.556 1.24 1.239 1.24c0.683 0 1.239-0.556 1.239-1.24s-0.555-1.24-1.239-1.24z"></path>
<path d="M29.576 25.361c-0.683 0-1.238 0.556-1.238 1.24s0.555 1.24 1.238 1.24 1.239-0.556 1.239-1.24c0-0.684-0.556-1.24-1.239-1.24z"></path>
<path d="M35.303 21.92c-0.683 0-1.239 0.556-1.239 1.24s0.556 1.24 1.239 1.24c0.683 0 1.239-0.556 1.239-1.24s-0.555-1.24-1.239-1.24z"></path>
<path d="M23.849 28.801c-0.683 0-1.238 0.556-1.238 1.24s0.556 1.24 1.238 1.24c0.683 0 1.239-0.556 1.239-1.24s-0.556-1.24-1.239-1.24z"></path>
<path d="M23.849 21.92c-0.683 0-1.238 0.556-1.238 1.24s0.556 1.24 1.238 1.24c0.683 0 1.239-0.556 1.239-1.24s-0.556-1.24-1.239-1.24z"></path>
<path d="M18.122 11.598c-0.683 0-1.238 0.556-1.238 1.24s0.556 1.24 1.238 1.24c0.683 0 1.239-0.556 1.239-1.24s-0.555-1.24-1.239-1.24z"></path>
<path d="M18.122 25.361c-0.683 0-1.238 0.556-1.238 1.24s0.556 1.24 1.238 1.24c0.683 0 1.239-0.556 1.239-1.24s-0.555-1.24-1.239-1.24z"></path>
<path d="M18.122 18.48c-0.683 0-1.238 0.556-1.238 1.24s0.556 1.24 1.238 1.24c0.683 0 1.239-0.556 1.239-1.24s-0.555-1.24-1.239-1.24z"></path>
<path d="M12.396 8.157c-0.683 0-1.238 0.556-1.238 1.24s0.555 1.241 1.238 1.241 1.239-0.557 1.239-1.241c0-0.684-0.556-1.24-1.239-1.24z"></path>
<path d="M12.396 21.92c-0.683 0-1.238 0.556-1.238 1.24s0.555 1.24 1.238 1.24 1.239-0.556 1.239-1.24c0-0.684-0.556-1.24-1.239-1.24z"></path>
<path d="M12.396 15.039c-0.683 0-1.238 0.556-1.238 1.24s0.555 1.24 1.238 1.24c0.683 0 1.239-0.556 1.239-1.24s-0.556-1.24-1.239-1.24z"></path>
<path d="M151.91 5.315c-0.621 0-1.127 0.506-1.127 1.128s0.505 1.128 1.127 1.128c0.621 0 1.128-0.506 1.128-1.128s-0.506-1.128-1.128-1.128z"></path>
<path d="M178.007 5.315c-0.622 0-1.128 0.506-1.128 1.128s0.506 1.128 1.128 1.128c0.621 0 1.127-0.506 1.127-1.128s-0.505-1.128-1.127-1.128z"></path>
<path d="M172.095 23.978c-0.618 0-1.121 0.503-1.121 1.122s0.503 1.123 1.121 1.123 1.121-0.504 1.121-1.123c0-0.619-0.503-1.122-1.121-1.122z"></path>
</symbol>

<symbol id="icon-logo4" viewBox="0 0 200 32">
<path d="M16.985 0.597h18.665c-0.011 0.242-0.097 0.476-0.245 0.67-0.632 1.063-1.201 2.17-1.821 3.234-0.878 1.527-1.7 3.082-2.592 4.603-0.565 1.094-1.204 2.155-1.807 3.231-3.627 0-7.254 0-10.881 0-0.19 0-0.378 0.009-0.567 0.020-0.158 0.409-0.42 0.767-0.632 1.152-0.276 0.44-0.501 0.91-0.774 1.35-0.289 0.592-0.689 1.122-0.979 1.713-0.6 1-1.161 2.015-1.749 3.026-0.613 1.034-1.212 2.081-1.798 3.144-0.248 0.376-0.476 0.765-0.684 1.164-1.227 2.096-2.415 4.21-3.644 6.305-0.104 0.225-0.242 0.434-0.408 0.62-2.101-0.014-4.202 0-6.303 0-0.259 0.005-0.516 0.040-0.766 0.105 0-0.571 0.389-1.028 0.651-1.507 0.316-0.643 0.738-1.24 1.055-1.885 2.518-4.421 5.009-8.858 7.519-13.282 0.569-0.961 1.057-1.942 1.629-2.885 0.714-1.24 1.379-2.508 2.123-3.735 0.237-0.513 0.556-0.983 0.817-1.484 0.926-1.617 1.834-3.243 2.757-4.86 0.109-0.252 0.256-0.488 0.434-0.699z"></path>
<path d="M38.613 7.106c1.243-2.132 2.444-4.286 3.704-6.409h6.742c0.098 0.005 0.196 0.020 0.291 0.045-0.224 0.333-0.412 0.687-0.61 1.034-1.626 2.864-3.247 5.729-4.864 8.596-0.679 1.167-1.311 2.361-2 3.522l-0.068 0.023-0.013 0.146c-3.17 5.581-6.329 11.166-9.478 16.755-6.189 0.006-12.379 0.006-18.569 0 0.352-0.722 0.769-1.412 1.161-2.114 1.763-3.181 3.572-6.334 5.309-9.515 3.803-0.006 7.606-0.006 11.408 0 2.349-4.015 4.647-8.061 6.979-12.082h0.006z"></path>
<path d="M108.194 0.615v30.571h5.398v-21.497l9.846 14.158 9.767-14.495v21.833h5.556v-30.571h-5.976l-9.307 14.112-9.412-14.112h-5.872z"></path>
<path d="M82.945 8.501h3.527v22.944h-3.527v-22.944z"></path>
<path d="M82.641 0.001h4.134v3.849h-4.134v-3.849z"></path>
<path d="M93.213 1.925h3.685v6.575h7.266v3.204h-7.266v13.63c-0.006 0.525 0.118 1.044 0.362 1.512 0.624 1.163 2.319 2.542 6.905 0.93v2.97c0 0-4.186 2.325-7.977 0.208 0 0-1.883-0.784-2.674-3.432-0.206-0.709-0.307-1.444-0.3-2.181v-13.687l-3.107 0.051v-3.204h3.132l-0.025-6.575z"></path>
<path d="M144.447 0.615v30.777h23.431v-4.961h-17.718v-8.165h15.612v-4.883h-15.639v-7.776h17.561v-4.992h-23.248z"></path>
<path d="M170.077 0.615h6.674l7.661 10.805 7.601-10.805h6.675l-10.9 15.009 11.58 15.741h-7.031l-7.898-11.497-8.281 11.523h-6.674l11.413-15.631-10.821-15.146z"></path>
<path d="M72.15 15.425c0 0 5.161-1.911 4.845-7.415 0 0-0.043-5.293-6.115-6.926-1.010-0.265-2.051-0.397-3.096-0.391h-14.563l0.039 30.571h15.678c0 0 9.175-0.194 9.821-8.216 0 0 0.657-5.607-6.609-7.622zM56.985 3.849h9.295c7.292-0.025 7.082 5.013 7.082 5.013 0.109 5.748-6.583 5.632-6.583 5.632h-9.794v-10.645zM68.359 28.033h-11.374v-10.644h10.874c7.292-0.026 7.082 5.012 7.082 5.012 0.109 5.748-6.583 5.632-6.583 5.632z"></path>
</symbol>

<symbol id="icon-icon-sellers" viewBox="0 0 53 32">
<path d="M49.842 4.642c0.002 0.597-0.109 1.187-0.324 1.726s-0.529 1.014-0.918 1.39l-20.145 19.297c-0.601 0.588-1.354 0.909-2.132 0.909s-1.531-0.321-2.132-0.909l-20.145-19.976c-0.686-0.678-1.117-1.653-1.199-2.709s0.192-2.108 0.762-2.924c0.57-0.816 1.389-1.329 2.277-1.426s1.772 0.229 2.457 0.907l17.996 17.858 17.996-17.259c0.493-0.489 1.093-0.799 1.729-0.894s1.282 0.028 1.862 0.356c0.579 0.328 1.068 0.846 1.407 1.494s0.516 1.397 0.508 2.161z"></path>
</symbol>

<symbol id="icon-Vector-sell" viewBox="0 0 20 32">
<path d="M9.432 23.994l-8.86-5.255 8.855 12.545 8.865-12.545-8.859 5.255zM9.563 2.276l-8.856 14.773 8.856 5.264 8.86-5.259-8.86-14.779z"></path>
</symbol>

<symbol id="icon-player" viewBox="0 0 23 32">
<path d="M1.792 1.755c-0.197-0.145-0.457-0.167-0.675-0.056s-0.354 0.337-0.354 0.584v28.795c0 0.247 0.137 0.472 0.354 0.584 0.092 0.047 0.193 0.071 0.292 0.071 0.135 0 0.27-0.043 0.383-0.127l19.402-14.397c0.166-0.124 0.264-0.32 0.264-0.528s-0.098-0.404-0.264-0.528l-19.402-14.397z"></path>
</symbol>

<symbol id="icon-instagram" viewBox="0 0 32 32">
<path fill="#fff" style="fill: var(--color1, #fff)" opacity="0.1" d="M0 16.136c0-8.683 7.039-15.722 15.722-15.722s15.722 7.039 15.722 15.722c0 8.683-7.039 15.722-15.722 15.722s-15.722-7.039-15.722-15.722z"></path>
<path fill="#fff" style="fill: var(--color1, #fff)" d="M15.723 7.751c-2.277 0-2.563 0.010-3.458 0.051-0.893 0.041-1.502 0.182-2.035 0.39-0.552 0.214-1.019 0.501-1.485 0.967s-0.753 0.934-0.968 1.485c-0.208 0.533-0.349 1.143-0.39 2.035-0.040 0.894-0.051 1.18-0.051 3.458s0.010 2.562 0.051 3.457c0.041 0.893 0.182 1.502 0.39 2.035 0.214 0.551 0.501 1.019 0.967 1.485s0.934 0.754 1.485 0.968c0.534 0.207 1.143 0.349 2.036 0.39 0.894 0.041 1.18 0.051 3.457 0.051s2.562-0.010 3.457-0.051c0.893-0.041 1.503-0.182 2.036-0.39 0.551-0.214 1.018-0.501 1.484-0.968s0.753-0.934 0.968-1.485c0.206-0.533 0.348-1.143 0.39-2.035 0.040-0.894 0.051-1.18 0.051-3.457s-0.010-2.563-0.051-3.458c-0.042-0.893-0.183-1.502-0.39-2.035-0.215-0.552-0.501-1.019-0.968-1.485s-0.933-0.753-1.485-0.967c-0.535-0.207-1.144-0.349-2.037-0.39-0.894-0.041-1.179-0.051-3.457-0.051h0.003zM14.971 9.262c0.223-0 0.472 0 0.752 0 2.239 0 2.504 0.008 3.388 0.048 0.818 0.037 1.261 0.174 1.557 0.289 0.391 0.152 0.67 0.334 0.964 0.627s0.475 0.573 0.628 0.964c0.115 0.295 0.252 0.739 0.289 1.556 0.040 0.884 0.049 1.149 0.049 3.387s-0.009 2.503-0.049 3.387c-0.037 0.818-0.174 1.261-0.289 1.556-0.152 0.391-0.334 0.67-0.628 0.963s-0.572 0.475-0.964 0.627c-0.295 0.115-0.739 0.252-1.557 0.289-0.884 0.040-1.149 0.049-3.388 0.049s-2.504-0.009-3.388-0.049c-0.818-0.038-1.261-0.174-1.557-0.289-0.391-0.152-0.671-0.334-0.964-0.627s-0.475-0.572-0.627-0.964c-0.115-0.295-0.252-0.739-0.289-1.556-0.040-0.884-0.048-1.149-0.048-3.389s0.008-2.503 0.048-3.387c0.037-0.818 0.174-1.261 0.289-1.557 0.152-0.391 0.334-0.671 0.627-0.964s0.573-0.475 0.964-0.627c0.296-0.115 0.739-0.252 1.557-0.289 0.774-0.035 1.073-0.045 2.636-0.047v0.002zM20.199 10.655c-0.555 0-1.006 0.45-1.006 1.006s0.451 1.006 1.006 1.006 1.006-0.451 1.006-1.006c0-0.556-0.451-1.006-1.006-1.006zM15.723 11.83c-2.378 0-4.306 1.928-4.306 4.306s1.928 4.305 4.306 4.305c2.378 0 4.305-1.927 4.305-4.305s-1.927-4.306-4.305-4.306zM15.723 13.341c1.544 0 2.795 1.251 2.795 2.795s-1.252 2.795-2.795 2.795c-1.544 0-2.795-1.251-2.795-2.795s1.251-2.795 2.795-2.795z"></path>
</symbol>

<symbol id="icon-internet" viewBox="0 0 32 32">
<path fill="#fff" style="fill: var(--color1, #fff)" opacity="0.1" d="M0.259 16.136c0-8.683 7.039-15.722 15.722-15.722s15.722 7.039 15.722 15.722c0 8.683-7.039 15.722-15.722 15.722s-15.722-7.039-15.722-15.722z"></path>
<path fill="#fff" style="fill: var(--color1, #fff)" d="M24.366 16.125c0 0.567-0.058 1.133-0.171 1.685-0.111 0.539-0.274 1.068-0.489 1.574-0.21 0.497-0.47 0.976-0.773 1.422-0.299 0.444-0.644 0.86-1.023 1.239-0.38 0.378-0.797 0.722-1.241 1.022-0.448 0.302-0.927 0.561-1.424 0.772-0.507 0.213-1.037 0.377-1.575 0.487-0.553 0.114-1.121 0.172-1.689 0.172s-1.137-0.058-1.689-0.172c-0.539-0.11-1.069-0.274-1.576-0.487-0.497-0.211-0.977-0.47-1.425-0.772-0.443-0.301-0.861-0.644-1.24-1.022-0.379-0.38-0.724-0.796-1.024-1.239-0.302-0.446-0.563-0.925-0.773-1.422-0.215-0.506-0.379-1.035-0.49-1.574-0.112-0.552-0.17-1.118-0.17-1.685s0.057-1.135 0.17-1.686c0.111-0.539 0.275-1.069 0.49-1.574 0.21-0.497 0.471-0.976 0.773-1.423 0.3-0.444 0.645-0.859 1.024-1.239 0.379-0.378 0.796-0.721 1.24-1.021 0.448-0.303 0.928-0.563 1.425-0.774 0.506-0.214 1.036-0.378 1.576-0.487 0.552-0.113 1.12-0.17 1.689-0.17s1.136 0.057 1.689 0.17c0.538 0.11 1.069 0.274 1.575 0.487 0.497 0.211 0.976 0.471 1.424 0.774 0.443 0.3 0.861 0.643 1.241 1.021 0.379 0.38 0.723 0.795 1.023 1.239 0.304 0.447 0.564 0.926 0.773 1.423 0.215 0.505 0.378 1.035 0.489 1.574 0.113 0.551 0.171 1.118 0.171 1.686zM12.925 9.657c-1.997 0.942-3.487 2.779-3.952 4.993 0.189 0.002 3.173 0.039 6.611-0.873-1.239-2.199-2.564-3.993-2.659-4.121zM16.177 14.879c-3.687 1.102-7.225 1.023-7.352 1.018-0.002 0.077-0.006 0.151-0.006 0.228 0 1.837 0.694 3.512 1.835 4.778-0.002-0.004 1.957-3.475 5.822-4.723 0.093-0.031 0.188-0.059 0.283-0.086-0.18-0.406-0.376-0.814-0.581-1.215zM20.71 10.758c-1.261-1.11-2.916-1.783-4.729-1.783-0.582 0-1.146 0.070-1.687 0.2 0.107 0.144 1.452 1.926 2.677 4.171 2.702-1.011 3.722-2.562 3.74-2.588zM17.247 17.279c-0.016 0.005-0.032 0.010-0.048 0.016-4.225 1.471-5.605 4.435-5.62 4.467 1.216 0.944 2.74 1.514 4.401 1.514 0.992 0 1.936-0.202 2.796-0.567-0.106-0.625-0.522-2.815-1.53-5.43zM19.982 22.055c1.608-1.083 2.75-2.804 3.068-4.797-0.147-0.047-2.151-0.681-4.462-0.311 0.939 2.577 1.321 4.677 1.394 5.107zM17.521 14.412c0.166 0.341 0.327 0.688 0.476 1.037 0.053 0.125 0.104 0.248 0.155 0.37 2.46-0.309 4.884 0.211 4.987 0.232-0.016-1.695-0.624-3.251-1.628-4.469-0.014 0.019-1.162 1.676-3.989 2.829z"></path>
</symbol>

<symbol id="icon-twitter" viewBox="0 0 32 32">
<path fill="#fff" style="fill: var(--color1, #fff)" opacity="0.1" d="M0.518 16.136c0-8.683 7.039-15.722 15.722-15.722s15.722 7.039 15.722 15.722c0 8.683-7.039 15.722-15.722 15.722s-15.722-7.039-15.722-15.722z"></path>
<path fill="#fff" style="fill: var(--color1, #fff)" d="M15.769 13.193l0.033 0.544-0.55-0.067c-2.001-0.255-3.75-1.121-5.235-2.576l-0.726-0.722-0.187 0.533c-0.396 1.188-0.143 2.443 0.682 3.286 0.44 0.466 0.341 0.533-0.418 0.255-0.264-0.089-0.495-0.155-0.517-0.122-0.077 0.078 0.187 1.088 0.396 1.488 0.286 0.555 0.869 1.099 1.507 1.421l0.539 0.255-0.638 0.011c-0.616 0-0.638 0.011-0.572 0.244 0.22 0.722 1.089 1.488 2.056 1.821l0.682 0.233-0.594 0.355c-0.88 0.511-1.913 0.799-2.947 0.822-0.495 0.011-0.902 0.055-0.902 0.089 0 0.111 1.342 0.733 2.122 0.977 2.342 0.722 5.125 0.411 7.214-0.822 1.485-0.877 2.969-2.62 3.662-4.308 0.374-0.899 0.748-2.542 0.748-3.331 0-0.511 0.033-0.577 0.649-1.188 0.363-0.355 0.704-0.744 0.77-0.855 0.11-0.211 0.099-0.211-0.462-0.022-0.935 0.333-1.067 0.289-0.605-0.211 0.341-0.355 0.748-0.999 0.748-1.188 0-0.033-0.165 0.022-0.352 0.122-0.198 0.111-0.638 0.278-0.968 0.377l-0.594 0.189-0.539-0.366c-0.297-0.2-0.715-0.422-0.935-0.489-0.561-0.155-1.419-0.133-1.924 0.044-1.375 0.5-2.243 1.787-2.144 3.197z"></path>
</symbol>

<symbol id="icon-youtube" viewBox="0 0 33 32">
<path fill="#fff" style="fill: var(--color1, #fff)" opacity="0.1" d="M0.776 16.136c0-8.683 7.039-15.722 15.722-15.722s15.722 7.039 15.722 15.722c0 8.683-7.039 15.722-15.722 15.722s-15.722-7.039-15.722-15.722z"></path>
<path fill="#fff" style="fill: var(--color1, #fff)" d="M23.050 10.732c0.722 0.198 1.29 0.781 1.483 1.522 0.35 1.343 0.35 4.145 0.35 4.145s0 2.802-0.35 4.145c-0.193 0.741-0.761 1.324-1.483 1.523-1.308 0.36-6.552 0.36-6.552 0.36s-5.244 0-6.552-0.36c-0.722-0.198-1.29-0.782-1.483-1.523-0.35-1.343-0.35-4.145-0.35-4.145s0-2.802 0.35-4.145c0.193-0.741 0.761-1.324 1.483-1.522 1.308-0.36 6.552-0.36 6.552-0.36s5.244 0 6.552 0.36zM14.926 14.040v5.241l4.193-2.62-4.193-2.62z"></path>
</symbol>

<symbol id="icon-check" viewBox="0 0 60 32">
<path fill="#fff" style="fill: var(--color1, #fff)" opacity="0.54" d="M60 5.31c0.002 0.683-0.139 1.358-0.414 1.975s-0.675 1.161-1.172 1.591l-25.712 22.084c-0.767 0.672-1.729 1.040-2.721 1.040s-1.954-0.368-2.721-1.040l-25.712-22.861c-0.875-0.776-1.425-1.891-1.53-3.1s0.245-2.413 0.973-3.347c0.727-0.934 1.773-1.521 2.906-1.632s2.261 0.262 3.137 1.038l22.969 20.438 22.969-19.752c0.629-0.559 1.395-0.914 2.208-1.023s1.637 0.032 2.376 0.407 1.362 0.968 1.796 1.71c0.433 0.741 0.658 1.599 0.649 2.473z"></path>
</symbol>


</defs>
</svg>