<svg width="117" height="16" viewBox="0 0 117 16" fill="none" xmlns="http://www.w3.org/2000/svg">
<path d="M3.70743 15.0625C3.20334 15.0625 2.73905 14.9365 2.31455 14.6844C1.90332 14.4324 1.57168 14.1008 1.31964 13.6895C1.06759 13.265 0.941572 12.8007 0.941572 12.2966V3.50161C0.941572 2.99752 1.06759 2.53986 1.31964 2.12863C1.57168 1.70413 1.90332 1.36586 2.31455 1.11381C2.73905 0.86177 3.20334 0.735748 3.70743 0.735748H12.5025C13.0066 0.735748 13.4642 0.86177 13.8754 1.11381C14.2999 1.36586 14.6382 1.70413 14.8903 2.12863C15.1423 2.53986 15.2683 2.99752 15.2683 3.50161V12.2966C15.2683 12.8007 15.1423 13.265 14.8903 13.6895C14.6382 14.1008 14.2999 14.4324 13.8754 14.6844C13.4642 14.9365 13.0066 15.0625 12.5025 15.0625H3.70743ZM3.80692 12.416H12.3632C12.4295 12.416 12.4892 12.3961 12.5423 12.3563C12.5953 12.3033 12.6219 12.2436 12.6219 12.1773V3.621C12.6219 3.55467 12.5953 3.50161 12.5423 3.46181C12.4892 3.40875 12.4295 3.38222 12.3632 3.38222H3.80692C3.74059 3.38222 3.6809 3.40875 3.62784 3.46181C3.58804 3.50161 3.56814 3.55467 3.56814 3.621V12.1773C3.56814 12.2436 3.58804 12.3033 3.62784 12.3563C3.6809 12.3961 3.74059 12.416 3.80692 12.416ZM19.834 15.0625C19.33 15.0625 18.8723 14.9365 18.4611 14.6844C18.0498 14.4324 17.7182 14.1008 17.4661 13.6895C17.2141 13.2783 17.0881 12.8206 17.0881 12.3165V6.26747C17.0881 5.76338 17.2141 5.30572 17.4661 4.89449C17.7182 4.48325 18.0498 4.15162 18.4611 3.89957C18.8723 3.64753 19.33 3.5215 19.834 3.5215H28.7883V6.12818H19.9335C19.8672 6.12818 19.8075 6.15471 19.7545 6.20777C19.7147 6.24757 19.6948 6.30063 19.6948 6.36696V12.217C19.6948 12.2834 19.7147 12.3431 19.7545 12.3961C19.8075 12.4359 19.8672 12.4558 19.9335 12.4558H28.8082V15.0625H19.834ZM33.1643 15.0625C32.6602 15.0625 32.2026 14.9365 31.7913 14.6844C31.3801 14.4324 31.0485 14.1008 30.7964 13.6895C30.5444 13.2783 30.4184 12.8206 30.4184 12.3165V6.26747C30.4184 5.76338 30.5444 5.30572 30.7964 4.89449C31.0485 4.48325 31.3801 4.15162 31.7913 3.89957C32.2026 3.64753 32.6602 3.5215 33.1643 3.5215H39.3925C39.8966 3.5215 40.3542 3.64753 40.7655 3.89957C41.19 4.15162 41.5216 4.48325 41.7604 4.89449C42.0124 5.30572 42.1384 5.76338 42.1384 6.26747V10.6053H33.025V12.217C33.025 12.2834 33.0449 12.3431 33.0847 12.3961C33.1378 12.4359 33.1975 12.4558 33.2638 12.4558H42.1384V15.0625H33.1643ZM33.025 8.25729H39.5318V6.36696C39.5318 6.30063 39.5052 6.24757 39.4522 6.20777C39.4124 6.15471 39.3593 6.12818 39.293 6.12818H33.2638C33.1975 6.12818 33.1378 6.15471 33.0847 6.20777C33.0449 6.24757 33.025 6.30063 33.025 6.36696V8.25729ZM46.9614 15.0625C46.4574 15.0625 45.9931 14.9365 45.5686 14.6844C45.1573 14.4324 44.8257 14.1008 44.5736 13.6895C44.3349 13.2783 44.2155 12.8206 44.2155 12.3165V7.97872H53.3289V6.36696C53.3289 6.30063 53.3024 6.24757 53.2493 6.20777C53.2095 6.15471 53.1564 6.12818 53.0901 6.12818H44.2155V3.5215H53.1896C53.6937 3.5215 54.1513 3.64753 54.5626 3.89957C54.9871 4.15162 55.3187 4.48325 55.5575 4.89449C55.8095 5.30572 55.9356 5.76338 55.9356 6.26747V15.0625H46.9614ZM47.0609 12.4558H53.3289V10.3267H46.8222V12.217C46.8222 12.2834 46.8421 12.3431 46.8818 12.3961C46.9349 12.4359 46.9946 12.4558 47.0609 12.4558ZM57.8576 15.0625V3.5215H66.8317C67.3358 3.5215 67.7935 3.64753 68.2047 3.89957C68.6292 4.15162 68.9608 4.48325 69.1996 4.89449C69.4517 5.30572 69.5777 5.76338 69.5777 6.26747V15.0625H66.971V6.36696C66.971 6.30063 66.9445 6.24757 66.8914 6.20777C66.8516 6.15471 66.7986 6.12818 66.7322 6.12818H60.7031C60.6367 6.12818 60.577 6.15471 60.524 6.20777C60.4842 6.24757 60.4643 6.30063 60.4643 6.36696V15.0625H57.8576Z" fill="white" fill-opacity="0.6"/>
<path d="M71.7523 15.0625V0.735748H74.6376L83.4326 11.2022V0.735748H86.0791V15.0625H83.1939L74.3789 4.57611V15.0625H71.7523ZM88.3481 15.0625V0.735748H101.541V3.38222H90.9946V6.56594H99.4713V9.23231H90.9946V15.0625H88.3481ZM108.016 15.0625V3.38222H102.166V0.735748H116.493V3.38222H110.662V15.0625H108.016Z" fill="white"/>
</svg>
